<mxfile host="app.diagrams.net" modified="2021-02-10T07:33:53.651Z" agent="5.0 (Windows NT 10.0; Win64; x64) AppleWebKit/537.36 (KHTML, like Gecko) Chrome/88.0.4324.146 Safari/537.36" etag="QPEA96cR9t0TSlvBEWRk" version="14.3.0" type="github">
  <diagram id="Rnuk8DPCOvYCJsGH0qAO" name="Page-1">
    <mxGraphModel dx="868" dy="482" grid="1" gridSize="10" guides="1" tooltips="1" connect="1" arrows="1" fold="1" page="1" pageScale="1" pageWidth="850" pageHeight="1100" math="0" shadow="0">
      <root>
        <mxCell id="0" />
        <mxCell id="1" parent="0" />
        <mxCell id="6Vmt0i7vHrysUuyEGdad-1" value="Actor" style="shape=umlActor;verticalLabelPosition=bottom;verticalAlign=top;html=1;" vertex="1" parent="1">
          <mxGeometry x="370" y="40" width="60" height="110" as="geometry" />
        </mxCell>
        <mxCell id="6Vmt0i7vHrysUuyEGdad-2" value="Reserve parking spot" style="ellipse;whiteSpace=wrap;html=1;" vertex="1" parent="1">
          <mxGeometry x="330" y="220" width="140" height="70" as="geometry" />
        </mxCell>
        <mxCell id="6Vmt0i7vHrysUuyEGdad-7" style="edgeStyle=orthogonalEdgeStyle;rounded=0;orthogonalLoop=1;jettySize=auto;html=1;exitX=1;exitY=0;exitDx=0;exitDy=0;entryX=0;entryY=1;entryDx=0;entryDy=0;" edge="1" parent="1" source="6Vmt0i7vHrysUuyEGdad-3" target="6Vmt0i7vHrysUuyEGdad-2">
          <mxGeometry relative="1" as="geometry">
            <Array as="points">
              <mxPoint x="240" y="320" />
              <mxPoint x="351" y="320" />
            </Array>
          </mxGeometry>
        </mxCell>
        <mxCell id="6Vmt0i7vHrysUuyEGdad-3" value="Locate spot" style="ellipse;whiteSpace=wrap;html=1;" vertex="1" parent="1">
          <mxGeometry x="140" y="410" width="140" height="70" as="geometry" />
        </mxCell>
        <mxCell id="6Vmt0i7vHrysUuyEGdad-6" style="edgeStyle=orthogonalEdgeStyle;rounded=0;orthogonalLoop=1;jettySize=auto;html=1;exitX=0.5;exitY=0;exitDx=0;exitDy=0;" edge="1" parent="1" source="6Vmt0i7vHrysUuyEGdad-4" target="6Vmt0i7vHrysUuyEGdad-2">
          <mxGeometry relative="1" as="geometry" />
        </mxCell>
        <mxCell id="6Vmt0i7vHrysUuyEGdad-4" value="Purchase reservation" style="ellipse;whiteSpace=wrap;html=1;" vertex="1" parent="1">
          <mxGeometry x="330" y="410" width="140" height="70" as="geometry" />
        </mxCell>
        <mxCell id="6Vmt0i7vHrysUuyEGdad-8" style="edgeStyle=orthogonalEdgeStyle;rounded=0;orthogonalLoop=1;jettySize=auto;html=1;exitX=0;exitY=0;exitDx=0;exitDy=0;entryX=1;entryY=1;entryDx=0;entryDy=0;" edge="1" parent="1" source="6Vmt0i7vHrysUuyEGdad-5" target="6Vmt0i7vHrysUuyEGdad-2">
          <mxGeometry relative="1" as="geometry">
            <Array as="points">
              <mxPoint x="541" y="320" />
              <mxPoint x="450" y="320" />
            </Array>
          </mxGeometry>
        </mxCell>
        <mxCell id="6Vmt0i7vHrysUuyEGdad-5" value="Review reservation" style="ellipse;whiteSpace=wrap;html=1;" vertex="1" parent="1">
          <mxGeometry x="520" y="410" width="140" height="70" as="geometry" />
        </mxCell>
        <mxCell id="6Vmt0i7vHrysUuyEGdad-9" value="Includes" style="text;html=1;align=center;verticalAlign=middle;resizable=0;points=[];autosize=1;" vertex="1" parent="1">
          <mxGeometry x="260" y="300" width="60" height="20" as="geometry" />
        </mxCell>
        <mxCell id="6Vmt0i7vHrysUuyEGdad-10" value="Includes" style="text;html=1;align=center;verticalAlign=middle;resizable=0;points=[];autosize=1;" vertex="1" parent="1">
          <mxGeometry x="470" y="300" width="60" height="20" as="geometry" />
        </mxCell>
        <mxCell id="6Vmt0i7vHrysUuyEGdad-11" value="Includes" style="text;html=1;align=center;verticalAlign=middle;resizable=0;points=[];autosize=1;" vertex="1" parent="1">
          <mxGeometry x="395" y="370" width="60" height="20" as="geometry" />
        </mxCell>
        <mxCell id="6Vmt0i7vHrysUuyEGdad-12" value="" style="endArrow=none;html=1;" edge="1" parent="1">
          <mxGeometry width="50" height="50" relative="1" as="geometry">
            <mxPoint x="399.5" y="210" as="sourcePoint" />
            <mxPoint x="400" y="180" as="targetPoint" />
          </mxGeometry>
        </mxCell>
      </root>
    </mxGraphModel>
  </diagram>
</mxfile>
